<svg width="281" height="281" viewBox="0 0 281 281" fill="none" xmlns="http://www.w3.org/2000/svg">
<g filter="url(#filter0_d_988_107577)">
<g clip-path="url(#clip0_988_107577)">
<rect x="45.0703" y="38.0049" width="190" height="190" rx="21.7143" fill="#172364" fill-opacity="0.4"/>
<path d="M91.5562 212.52V200.36H96.507C97.1672 200.36 97.7636 200.527 98.2963 200.863C98.8406 201.188 99.2749 201.633 99.5992 202.201C99.9234 202.768 100.086 203.4 100.086 204.094C100.086 204.789 99.9234 205.42 99.5992 205.988C99.2749 206.555 98.8406 207.013 98.2963 207.36C97.7636 207.696 97.1672 207.864 96.507 207.864H93.4323V212.52H91.5562ZM93.4323 206.057H96.4723C96.785 206.057 97.0687 205.971 97.3235 205.797C97.5783 205.611 97.781 205.374 97.9315 205.085C98.0936 204.783 98.1747 204.453 98.1747 204.094C98.1747 203.735 98.0936 203.411 97.9315 203.122C97.781 202.832 97.5783 202.6 97.3235 202.427C97.0687 202.253 96.785 202.166 96.4723 202.166H93.4323V206.057ZM102.114 212.52V203.4H103.921V206.266L103.747 205.571C103.875 205.131 104.089 204.731 104.39 204.372C104.703 204.013 105.056 203.73 105.45 203.521C105.855 203.313 106.272 203.208 106.7 203.208C106.897 203.208 107.083 203.226 107.256 203.261C107.442 203.295 107.586 203.336 107.691 203.382L107.222 205.328C107.083 205.27 106.926 205.224 106.753 205.189C106.59 205.142 106.428 205.119 106.266 205.119C105.953 205.119 105.652 205.183 105.363 205.31C105.085 205.426 104.836 205.594 104.616 205.814C104.407 206.023 104.239 206.272 104.112 206.561C103.985 206.839 103.921 207.146 103.921 207.482V212.52H102.114ZM112.83 212.693C111.938 212.693 111.139 212.491 110.433 212.085C109.738 211.668 109.188 211.107 108.783 210.4C108.377 209.682 108.175 208.866 108.175 207.951C108.175 207.036 108.377 206.225 108.783 205.519C109.188 204.801 109.738 204.239 110.433 203.834C111.139 203.417 111.938 203.208 112.83 203.208C113.71 203.208 114.498 203.417 115.193 203.834C115.899 204.239 116.455 204.801 116.86 205.519C117.266 206.225 117.468 207.036 117.468 207.951C117.468 208.866 117.266 209.682 116.86 210.4C116.455 211.107 115.899 211.668 115.193 212.085C114.498 212.491 113.71 212.693 112.83 212.693ZM112.83 211.06C113.374 211.06 113.861 210.927 114.289 210.661C114.718 210.383 115.054 210.012 115.297 209.549C115.54 209.074 115.656 208.541 115.644 207.951C115.656 207.349 115.54 206.816 115.297 206.353C115.054 205.878 114.718 205.507 114.289 205.241C113.861 204.975 113.374 204.841 112.83 204.841C112.286 204.841 111.794 204.98 111.354 205.258C110.925 205.525 110.589 205.895 110.346 206.37C110.103 206.833 109.987 207.36 109.999 207.951C109.987 208.541 110.103 209.074 110.346 209.549C110.589 210.012 110.925 210.383 111.354 210.661C111.794 210.927 112.286 211.06 112.83 211.06ZM123.222 212.693C122.388 212.693 121.641 212.491 120.981 212.085C120.333 211.668 119.817 211.107 119.435 210.4C119.053 209.682 118.862 208.866 118.862 207.951C118.862 207.036 119.047 206.225 119.418 205.519C119.8 204.801 120.315 204.239 120.964 203.834C121.613 203.417 122.348 203.208 123.17 203.208C123.622 203.208 124.056 203.284 124.473 203.434C124.902 203.573 125.284 203.77 125.62 204.025C125.955 204.268 126.216 204.54 126.401 204.841C126.598 205.131 126.697 205.426 126.697 205.727L126.175 205.762V199.665H127.965V212.52H126.175V210.348H126.523C126.523 210.626 126.43 210.904 126.245 211.182C126.06 211.448 125.811 211.697 125.498 211.929C125.197 212.161 124.844 212.346 124.438 212.485C124.045 212.624 123.639 212.693 123.222 212.693ZM123.465 211.147C124.01 211.147 124.49 211.008 124.907 210.73C125.324 210.452 125.648 210.076 125.88 209.601C126.123 209.115 126.245 208.565 126.245 207.951C126.245 207.337 126.123 206.793 125.88 206.318C125.648 205.832 125.324 205.449 124.907 205.171C124.49 204.893 124.01 204.755 123.465 204.755C122.921 204.755 122.441 204.893 122.024 205.171C121.607 205.449 121.277 205.832 121.033 206.318C120.802 206.793 120.686 207.337 120.686 207.951C120.686 208.565 120.802 209.115 121.033 209.601C121.277 210.076 121.607 210.452 122.024 210.73C122.441 211.008 122.921 211.147 123.465 211.147ZM133.896 212.693C133.247 212.693 132.68 212.543 132.193 212.242C131.718 211.94 131.348 211.518 131.081 210.973C130.827 210.429 130.699 209.781 130.699 209.028V203.4H132.488V208.541C132.488 209.074 132.57 209.537 132.732 209.931C132.905 210.313 133.149 210.609 133.461 210.817C133.786 211.026 134.173 211.13 134.625 211.13C134.961 211.13 135.268 211.078 135.546 210.973C135.824 210.858 136.061 210.701 136.258 210.504C136.466 210.308 136.629 210.07 136.744 209.792C136.86 209.514 136.918 209.213 136.918 208.889V203.4H138.707V212.52H136.918V210.609L137.231 210.4C137.092 210.829 136.854 211.217 136.519 211.564C136.194 211.912 135.806 212.189 135.355 212.398C134.903 212.595 134.417 212.693 133.896 212.693ZM145.091 212.693C144.245 212.693 143.487 212.485 142.815 212.068C142.155 211.651 141.628 211.083 141.234 210.365C140.852 209.647 140.661 208.843 140.661 207.951C140.661 207.059 140.852 206.254 141.234 205.536C141.628 204.818 142.155 204.251 142.815 203.834C143.487 203.417 144.245 203.208 145.091 203.208C145.902 203.208 146.637 203.376 147.297 203.712C147.969 204.036 148.478 204.482 148.826 205.05L147.836 206.266C147.65 205.999 147.413 205.756 147.123 205.536C146.834 205.316 146.527 205.142 146.203 205.015C145.878 204.888 145.566 204.824 145.265 204.824C144.709 204.824 144.211 204.963 143.771 205.241C143.342 205.507 143.001 205.878 142.746 206.353C142.491 206.827 142.364 207.36 142.364 207.951C142.364 208.541 142.497 209.074 142.763 209.549C143.029 210.012 143.383 210.383 143.823 210.661C144.263 210.939 144.749 211.078 145.282 211.078C145.595 211.078 145.896 211.026 146.185 210.921C146.486 210.817 146.776 210.661 147.054 210.452C147.332 210.244 147.592 209.989 147.836 209.688L148.826 210.904C148.455 211.425 147.922 211.854 147.228 212.189C146.544 212.525 145.832 212.693 145.091 212.693ZM151.643 212.52V201.072H153.432V212.52H151.643ZM149.749 205.137V203.4H155.551V205.137H149.749ZM157.476 212.52V203.4H159.265V212.52H157.476ZM158.344 201.384C157.962 201.384 157.667 201.286 157.458 201.089C157.25 200.892 157.146 200.614 157.146 200.255C157.146 199.919 157.25 199.647 157.458 199.439C157.678 199.23 157.974 199.126 158.344 199.126C158.726 199.126 159.022 199.225 159.23 199.421C159.439 199.618 159.543 199.896 159.543 200.255C159.543 200.591 159.433 200.863 159.213 201.072C159.004 201.28 158.715 201.384 158.344 201.384ZM165.003 212.52L161.147 203.4H163.075L165.854 210.227L165.524 210.383L168.495 203.4H170.336L166.289 212.52H165.003ZM172.269 212.52V203.4H174.058V212.52H172.269ZM173.137 201.384C172.755 201.384 172.46 201.286 172.251 201.089C172.043 200.892 171.939 200.614 171.939 200.255C171.939 199.919 172.043 199.647 172.251 199.439C172.471 199.23 172.767 199.126 173.137 199.126C173.519 199.126 173.815 199.225 174.023 199.421C174.232 199.618 174.336 199.896 174.336 200.255C174.336 200.591 174.226 200.863 174.006 201.072C173.797 201.28 173.508 201.384 173.137 201.384ZM177.937 212.52V201.072H179.727V212.52H177.937ZM176.044 205.137V203.4H181.846V205.137H176.044ZM185.004 216.515L186.845 212.259L186.863 213.683L182.311 203.4H184.396L187.245 210.105C187.303 210.221 187.372 210.4 187.453 210.643C187.534 210.875 187.604 211.107 187.662 211.338L187.21 211.443C187.303 211.199 187.389 210.956 187.471 210.713C187.563 210.47 187.65 210.227 187.731 209.983L190.111 203.4H192.23L188.478 212.52L186.932 216.515H185.004Z" fill="white"/>
<rect x="121.07" y="130.292" width="16.2857" height="27.1429" rx="2.17143" fill="url(#paint0_radial_988_107577)"/>
<rect x="141.699" y="112.92" width="16.2857" height="44.5143" rx="2.17143" fill="url(#paint1_radial_988_107577)"/>
<rect x="162.328" y="97.7197" width="16.2857" height="59.7143" rx="2.17143" fill="url(#paint2_radial_988_107577)"/>
<rect x="100.441" y="141.148" width="16.2857" height="16.2857" rx="2.17143" fill="url(#paint3_radial_988_107577)"/>
<g clip-path="url(#clip1_988_107577)">
<path d="M97.207 149.511L97.9312 147.003C131.225 156.765 164.154 138.183 188.28 96.0228C191.54 90.3166 193.757 86.2474 193.782 86.2036L196.381 87.486C196.381 87.486 194.133 91.6179 190.854 97.3491C179.391 117.393 165.346 132.841 150.232 142.027C133.287 152.339 115.444 154.855 97.207 149.511Z" fill="#834F91"/>
<path d="M200.769 102.517L194.612 87.7464L177.636 91.4141L176.814 88.8434L196.34 84.6298L203.455 101.714L200.769 102.517Z" fill="#834F91"/>
</g>
</g>
<path d="M66.7842 38.5059H213.356C225.072 38.5061 234.57 48.0037 234.57 59.7197V206.292C234.57 218.008 225.072 227.506 213.356 227.506H66.7842C55.0682 227.506 45.5705 218.008 45.5703 206.292V59.7197C45.5705 48.0037 55.0682 38.5061 66.7842 38.5059Z" stroke="white" stroke-opacity="0.09" shape-rendering="crispEdges"/>
</g>
<defs>
<filter id="filter0_d_988_107577" x="0.00069809" y="-0.000416279" width="280.139" height="280.139" filterUnits="userSpaceOnUse" color-interpolation-filters="sRGB">
<feFlood flood-opacity="0" result="BackgroundImageFix"/>
<feColorMatrix in="SourceAlpha" type="matrix" values="0 0 0 0 0 0 0 0 0 0 0 0 0 0 0 0 0 0 127 0" result="hardAlpha"/>
<feOffset dy="7.06334"/>
<feGaussianBlur stdDeviation="22.5348"/>
<feComposite in2="hardAlpha" operator="out"/>
<feColorMatrix type="matrix" values="0 0 0 0 0 0 0 0 0 0 0 0 0 0 0 0 0 0 0.07 0"/>
<feBlend mode="normal" in2="BackgroundImageFix" result="effect1_dropShadow_988_107577"/>
<feBlend mode="normal" in="SourceGraphic" in2="effect1_dropShadow_988_107577" result="shape"/>
</filter>
<radialGradient id="paint0_radial_988_107577" cx="0" cy="0" r="1" gradientTransform="matrix(-1.74495 37.7455 -1235.02 -30.3561 132.703 116.296)" gradientUnits="userSpaceOnUse">
<stop offset="0.42708" stop-color="#FF9743"/>
<stop offset="1" stop-color="#FE8083"/>
</radialGradient>
<radialGradient id="paint1_radial_988_107577" cx="0" cy="0" r="1" gradientTransform="matrix(-2.90822 40.0629 -1580.63 -82.9723 160.893 107.974)" gradientUnits="userSpaceOnUse">
<stop offset="0.42708" stop-color="#FF9743"/>
<stop offset="1" stop-color="#FE8083"/>
</radialGradient>
<radialGradient id="paint2_radial_988_107577" cx="0" cy="0" r="1" gradientTransform="matrix(-2.90809 56.9497 -2411.92 -111.3 170.471 91.6377)" gradientUnits="userSpaceOnUse">
<stop offset="0.42708" stop-color="#FF9743"/>
<stop offset="1" stop-color="#FE8083"/>
</radialGradient>
<radialGradient id="paint3_radial_988_107577" cx="0" cy="0" r="1" gradientTransform="matrix(-2.32656 27.2609 -767.982 -24.2844 108.584 128.049)" gradientUnits="userSpaceOnUse">
<stop offset="0.42708" stop-color="#FF9743"/>
<stop offset="1" stop-color="#FE8083"/>
</radialGradient>
<clipPath id="clip0_988_107577">
<path d="M45.0703 59.7202C45.0703 47.7277 54.7921 38.0059 66.7846 38.0059H213.356C225.348 38.0059 235.07 47.7277 235.07 59.7201V206.292C235.07 218.284 225.348 228.006 213.356 228.006H66.7846C54.7921 228.006 45.0703 218.284 45.0703 206.292V59.7202Z" fill="white"/>
</clipPath>
<clipPath id="clip1_988_107577">
<rect width="87.5734" height="91.1275" fill="white" transform="translate(123.922 62.3867) rotate(17.0737)"/>
</clipPath>
</defs>
</svg>
